<svg width="462" height="76" viewBox="0 0 462 76" fill="none" xmlns="http://www.w3.org/2000/svg">
<path d="M10.71 44.064V0H0V44.574C0 46.682 0.17 48.722 0.51 50.694C0.85 52.598 1.36 54.4 2.04 56.1C2.72 57.8 3.536 59.398 4.488 60.894C5.44 62.39 6.528 63.75 7.752 64.974C8.976 66.198 10.302 67.286 11.73 68.238C13.226 69.19 14.79 70.006 16.422 70.686C18.054 71.298 19.754 71.774 21.522 72.114C23.358 72.454 25.228 72.624 27.132 72.624C30.804 72.624 34.272 71.876 37.536 70.38C40.8 68.884 43.588 66.844 45.9 64.26V71.4H56.61V0H45.9V44.064C45.9 49.776 44.166 54.366 40.698 57.834C37.298 61.302 33.15 63.036 28.254 63.036C23.29 63.036 19.108 61.302 15.708 57.834C12.376 54.366 10.71 49.776 10.71 44.064Z" fill="black"/>
<path d="M64.489 71.4H74.689V64.872C77.001 67.252 79.756 69.156 82.951 70.584C86.216 71.944 89.65 72.624 93.254 72.624C94.954 72.624 96.585 72.454 98.149 72.114C99.781 71.842 101.346 71.434 102.841 70.89C104.338 70.346 105.765 69.7 107.125 68.952C108.485 68.136 109.743 67.252 110.899 66.3C112.123 65.28 113.211 64.192 114.163 63.036C115.183 61.812 116.067 60.554 116.815 59.262C117.631 57.902 118.311 56.474 118.855 54.978C119.467 53.482 119.91 51.952 120.182 50.388C120.454 48.756 120.59 47.124 120.59 45.492C120.59 43.792 120.454 42.16 120.182 40.596C119.91 38.964 119.467 37.434 118.855 36.006C118.311 34.51 117.631 33.082 116.815 31.722C116.067 30.362 115.183 29.104 114.163 27.948C113.211 26.724 112.123 25.636 110.899 24.684C109.743 23.664 108.485 22.78 107.125 22.032C105.765 21.216 104.338 20.536 102.841 19.992C101.346 19.448 99.781 19.04 98.149 18.768C96.585 18.428 94.954 18.258 93.254 18.258C89.65 18.258 86.249 18.972 83.053 20.4C79.857 21.76 77.103 23.63 74.791 26.01V0H64.489V71.4ZM74.587 45.492C74.587 44.2 74.69 42.976 74.894 41.82C75.166 40.664 75.539 39.542 76.015 38.454C76.491 37.366 77.035 36.346 77.647 35.394C78.327 34.374 79.075 33.456 79.891 32.64C80.707 31.824 81.591 31.11 82.543 30.498C83.495 29.818 84.482 29.274 85.502 28.866C86.59 28.39 87.712 28.05 88.868 27.846C90.092 27.574 91.315 27.438 92.539 27.438C93.763 27.438 94.953 27.574 96.109 27.846C97.265 28.05 98.388 28.39 99.476 28.866C100.564 29.274 101.583 29.818 102.535 30.498C103.487 31.11 104.338 31.824 105.086 32.64C105.902 33.456 106.616 34.374 107.228 35.394C107.908 36.346 108.486 37.366 108.962 38.454C109.438 39.542 109.777 40.664 109.981 41.82C110.253 42.976 110.389 44.2 110.389 45.492C110.389 46.716 110.253 47.94 109.981 49.164C109.777 50.32 109.438 51.442 108.962 52.53C108.486 53.618 107.908 54.638 107.228 55.59C106.616 56.542 105.902 57.426 105.086 58.242C104.338 59.058 103.487 59.806 102.535 60.486C101.583 61.098 100.564 61.642 99.476 62.118C98.388 62.594 97.265 62.968 96.109 63.24C94.953 63.444 93.763 63.546 92.539 63.546C91.315 63.546 90.092 63.444 88.868 63.24C87.712 62.968 86.59 62.594 85.502 62.118C84.414 61.642 83.393 61.098 82.441 60.486C81.489 59.806 80.605 59.058 79.789 58.242C78.973 57.426 78.225 56.542 77.545 55.59C76.933 54.638 76.389 53.618 75.913 52.53C75.505 51.442 75.166 50.32 74.894 49.164C74.69 47.94 74.587 46.716 74.587 45.492Z" fill="black"/>
<path d="M124.15 45.39C124.15 47.09 124.286 48.756 124.558 50.388C124.83 52.02 125.238 53.584 125.782 55.08C126.394 56.576 127.074 58.004 127.822 59.364C128.638 60.656 129.522 61.914 130.474 63.138C131.494 64.294 132.616 65.382 133.84 66.402C135.064 67.354 136.356 68.204 137.716 68.952C139.076 69.7 140.504 70.346 142 70.89C143.496 71.434 145.06 71.842 146.692 72.114C148.392 72.386 150.092 72.522 151.792 72.522C156.484 72.522 160.734 71.536 164.542 69.564C168.418 67.592 171.648 64.872 174.232 61.404L166.786 55.896C164.882 58.48 162.638 60.418 160.054 61.71C157.538 62.934 154.784 63.546 151.792 63.546C147.44 63.546 143.632 62.152 140.368 59.364C137.172 56.508 135.234 52.972 134.554 48.756H176.884V45.39C176.884 43.69 176.748 42.024 176.476 40.392C176.204 38.76 175.796 37.196 175.252 35.7C174.776 34.204 174.164 32.81 173.416 31.518C172.736 30.158 171.92 28.9 170.968 27.744C170.016 26.588 168.962 25.534 167.806 24.582C166.718 23.562 165.528 22.678 164.236 21.93C163.012 21.182 161.652 20.536 160.156 19.992C158.728 19.448 157.232 19.04 155.668 18.768C154.172 18.496 152.574 18.36 150.874 18.36C149.174 18.36 147.508 18.53 145.876 18.87C144.312 19.142 142.782 19.55 141.286 20.094C139.858 20.638 138.464 21.318 137.104 22.134C135.812 22.882 134.588 23.766 133.432 24.786C132.276 25.806 131.222 26.928 130.27 28.152C129.318 29.308 128.468 30.566 127.72 31.926C126.972 33.218 126.326 34.612 125.782 36.108C125.238 37.536 124.83 39.032 124.558 40.596C124.286 42.16 124.15 43.758 124.15 45.39ZM150.67 27.336C154.478 27.336 157.844 28.56 160.768 31.008C163.692 33.456 165.596 36.652 166.48 40.596H134.758C135.642 36.652 137.546 33.456 140.47 31.008C143.462 28.56 146.862 27.336 150.67 27.336Z" fill="black"/>
<path d="M208.621 28.56V18.972H205.051C202.195 18.972 199.713 19.584 197.605 20.808C195.565 22.032 193.899 23.698 192.607 25.806V19.38H182.407V71.4H192.709V41.82C192.709 37.808 193.797 34.612 195.973 32.232C198.217 29.784 201.005 28.56 204.337 28.56H208.621Z" fill="black"/>
<path d="M293.221 35.802C293.221 33.83 293.051 31.892 292.711 29.988C292.439 28.084 291.997 26.248 291.385 24.48C290.773 22.712 290.025 21.012 289.141 19.38C288.325 17.68 287.373 16.116 286.285 14.688C285.197 13.192 284.007 11.798 282.715 10.506C281.423 9.214 280.029 8.024 278.533 6.936C277.037 5.848 275.473 4.896 273.841 4.08C272.209 3.196 270.475 2.448 268.639 1.836C266.871 1.224 265.035 0.782 263.131 0.51C261.227 0.17 259.289 0 257.317 0H231.919V71.4H257.317C259.289 71.4 261.227 71.264 263.131 70.992C265.035 70.652 266.871 70.21 268.639 69.666C270.475 69.054 272.209 68.34 273.841 67.524C275.473 66.64 277.037 65.654 278.533 64.566C280.029 63.478 281.423 62.288 282.715 60.996C284.007 59.704 285.197 58.344 286.285 56.916C287.373 55.42 288.325 53.856 289.141 52.224C290.025 50.592 290.773 48.892 291.385 47.124C291.997 45.356 292.439 43.52 292.711 41.616C293.051 39.712 293.221 37.774 293.221 35.802ZM257.419 4.386C259.119 4.386 260.785 4.522 262.417 4.794C264.049 5.066 265.647 5.474 267.211 6.018C268.775 6.562 270.237 7.208 271.597 7.956C273.025 8.704 274.385 9.554 275.677 10.506C276.969 11.458 278.159 12.512 279.247 13.668C280.403 14.756 281.457 15.98 282.409 17.34C283.361 18.632 284.177 19.992 284.857 21.42C285.605 22.848 286.217 24.344 286.693 25.908C287.237 27.472 287.645 29.104 287.917 30.804C288.189 32.436 288.325 34.102 288.325 35.802C288.325 37.502 288.189 39.202 287.917 40.902C287.645 42.534 287.237 44.132 286.693 45.696C286.217 47.26 285.605 48.756 284.857 50.184C284.177 51.612 283.361 52.972 282.409 54.264C281.457 55.556 280.403 56.78 279.247 57.936C278.159 59.024 276.969 60.044 275.677 60.996C274.385 61.948 273.025 62.798 271.597 63.546C270.237 64.294 268.775 64.94 267.211 65.484C265.647 65.96 264.049 66.334 262.417 66.606C260.785 66.878 259.119 67.014 257.419 67.014H236.815V4.386H257.419Z" fill="black"/>
<path d="M302.329 10.302C303.281 10.302 304.131 9.928 304.879 9.18C305.627 8.432 306.001 7.548 306.001 6.528C306.001 5.508 305.627 4.658 304.879 3.978C304.131 3.23 303.281 2.856 302.329 2.856C301.377 2.856 300.527 3.23 299.779 3.978C299.031 4.658 298.657 5.508 298.657 6.528C298.657 7.548 299.031 8.432 299.779 9.18C300.527 9.928 301.377 10.302 302.329 10.302ZM304.573 20.91H299.881V71.4H304.573V20.91Z" fill="black"/>
<path d="M333.87 24.99V20.502H330.3C327.512 20.502 325.03 21.216 322.854 22.644C320.746 24.072 319.148 25.942 318.06 28.254V20.91H313.368V71.4H318.06V39.474C318.06 35.53 319.182 32.13 321.426 29.274C323.67 26.418 326.696 24.99 330.504 24.99H333.87Z" fill="black"/>
<path d="M332.883 46.104C332.883 47.736 333.019 49.3 333.291 50.796C333.563 52.292 333.937 53.754 334.413 55.182C334.957 56.61 335.603 57.97 336.351 59.262C337.099 60.554 337.949 61.778 338.901 62.934C339.853 64.09 340.873 65.144 341.961 66.096C343.117 67.048 344.341 67.898 345.633 68.646C346.925 69.394 348.285 70.04 349.713 70.584C351.141 71.128 352.603 71.536 354.099 71.808C355.663 72.08 357.261 72.216 358.893 72.216C363.245 72.216 367.257 71.264 370.929 69.36C374.669 67.388 377.695 64.77 380.007 61.506L376.233 58.956C374.329 61.676 371.813 63.852 368.685 65.484C365.625 67.116 362.361 67.932 358.893 67.932C357.465 67.932 356.071 67.796 354.711 67.524C353.419 67.252 352.161 66.878 350.937 66.402C349.713 65.858 348.523 65.212 347.367 64.464C346.279 63.716 345.259 62.9 344.307 62.016C343.355 61.064 342.471 60.044 341.655 58.956C340.907 57.868 340.227 56.712 339.615 55.488C339.071 54.264 338.595 52.972 338.187 51.612C337.847 50.252 337.643 48.858 337.575 47.43H382.659V45.084C382.659 43.588 382.523 42.126 382.251 40.698C381.979 39.202 381.605 37.774 381.129 36.414C380.653 35.054 380.075 33.762 379.395 32.538C378.715 31.246 377.933 30.056 377.049 28.968C376.165 27.88 375.179 26.894 374.091 26.01C373.071 25.058 371.949 24.242 370.725 23.562C369.569 22.814 368.311 22.202 366.951 21.726C365.659 21.182 364.299 20.774 362.871 20.502C361.443 20.23 359.981 20.094 358.485 20.094C356.853 20.094 355.289 20.23 353.793 20.502C352.297 20.774 350.835 21.182 349.407 21.726C348.047 22.27 346.721 22.916 345.429 23.664C344.205 24.412 343.015 25.262 341.859 26.214C340.771 27.166 339.751 28.22 338.799 29.376C337.915 30.464 337.099 31.654 336.351 32.946C335.603 34.238 334.957 35.598 334.413 37.026C333.937 38.386 333.563 39.848 333.291 41.412C333.019 42.908 332.883 44.472 332.883 46.104ZM358.485 24.276C363.449 24.276 367.767 26.112 371.439 29.784C375.179 33.388 377.287 37.842 377.763 43.146H337.779C338.459 37.842 340.771 33.388 344.715 29.784C348.659 26.112 353.249 24.276 358.485 24.276Z" fill="black"/>
<path d="M391.902 46.104C391.902 44.744 392.004 43.418 392.208 42.126C392.48 40.834 392.82 39.61 393.228 38.454C393.636 37.23 394.146 36.074 394.758 34.986C395.438 33.898 396.152 32.878 396.9 31.926C397.716 30.974 398.566 30.124 399.45 29.376C400.402 28.56 401.388 27.846 402.408 27.234C403.496 26.622 404.618 26.112 405.774 25.704C406.93 25.228 408.12 24.888 409.344 24.684C410.636 24.412 411.928 24.276 413.22 24.276C416.688 24.276 419.952 25.126 423.012 26.826C426.072 28.458 428.588 30.634 430.56 33.354L434.334 30.804C432.022 27.54 428.996 24.956 425.256 23.052C421.584 21.08 417.572 20.094 413.22 20.094C411.588 20.094 409.99 20.23 408.426 20.502C406.93 20.774 405.468 21.182 404.04 21.726C402.612 22.27 401.252 22.916 399.96 23.664C398.668 24.412 397.444 25.262 396.288 26.214C395.2 27.166 394.18 28.22 393.228 29.376C392.276 30.464 391.426 31.654 390.678 32.946C389.93 34.238 389.284 35.598 388.74 37.026C388.264 38.454 387.89 39.916 387.618 41.412C387.346 42.908 387.21 44.472 387.21 46.104C387.21 47.736 387.346 49.3 387.618 50.796C387.89 52.292 388.264 53.754 388.74 55.182C389.284 56.61 389.93 57.97 390.678 59.262C391.426 60.554 392.276 61.778 393.228 62.934C394.18 64.09 395.2 65.144 396.288 66.096C397.444 67.048 398.668 67.898 399.96 68.646C401.252 69.394 402.612 70.04 404.04 70.584C405.468 71.128 406.93 71.536 408.426 71.808C409.99 72.08 411.588 72.216 413.22 72.216C417.572 72.216 421.584 71.264 425.256 69.36C428.996 67.388 432.022 64.77 434.334 61.506L430.56 58.956C428.588 61.676 426.072 63.852 423.012 65.484C419.952 67.116 416.688 67.932 413.22 67.932C411.928 67.932 410.636 67.83 409.344 67.626C408.12 67.354 406.93 67.014 405.774 66.606C404.618 66.13 403.496 65.586 402.408 64.974C401.388 64.362 400.402 63.648 399.45 62.832C398.566 62.016 397.716 61.132 396.9 60.18C396.152 59.228 395.438 58.208 394.758 57.12C394.146 56.032 393.636 54.91 393.228 53.754C392.82 52.53 392.48 51.306 392.208 50.082C392.004 48.79 391.902 47.464 391.902 46.104Z" fill="black"/>
<path d="M453.088 71.4H460.636V67.116H453.7C452 67.116 450.674 66.674 449.722 65.79C448.77 64.906 448.294 63.716 448.294 62.22V25.194H460.636V20.91H448.294V5.508H443.602V20.91H434.218V25.194H443.602V62.73C443.602 65.382 444.452 67.49 446.152 69.054C447.852 70.618 450.164 71.4 453.088 71.4Z" fill="black"/>
</svg>
